<svg xmlns="http://www.w3.org/2000/svg" version="1.1" xmlns:xlink="http://www.w3.org/1999/xlink" xmlns:svgjs="http://svgjs.dev/svgjs" width="1000" height="1000" viewBox="0 0 1000 1000"><rect width="1000" height="1000" fill="#ffffff"></rect><g transform="matrix(0.7,0,0,0.7,149.57575757575756,282.1265587044535)"><svg viewBox="0 0 396 247" data-background-color="#ffffff" preserveAspectRatio="xMidYMid meet" height="623" width="1000" xmlns="http://www.w3.org/2000/svg" xmlns:xlink="http://www.w3.org/1999/xlink"><g id="tight-bounds" transform="matrix(1,0,0,1,0.2400000000000091,-0.09999999999999432)"><svg viewBox="0 0 395.52 247.2" height="247.2" width="395.52"><g><svg></svg></g><g><svg viewBox="0 0 395.52 247.2" height="247.2" width="395.52"><g transform="matrix(1,0,0,1,39.55199999999999,51.479568404684755)"><svg viewBox="0 0 316.416 144.24086319063048" height="144.24086319063048" width="316.416"><g><svg viewBox="0 0 316.416 144.24086319063048" height="144.24086319063048" width="316.416"><g><svg viewBox="0 0 316.416 144.24086319063048" height="144.24086319063048" width="316.416"><g><svg viewBox="0 0 316.416 144.24086319063048" height="144.24086319063048" width="316.416"><g><svg viewBox="0 0 316.416 144.24086319063048" height="144.24086319063048" width="316.416"><g><svg viewBox="0 0 316.416 77.79662925933482" height="77.79662925933482" width="316.416"><g transform="matrix(1,0,0,1,0,0)"><svg width="316.416" viewBox="-8.01 -52.05 239.29 58.839999999999996" height="77.79662925933482" data-palette-color="#000000"><path d="M47.66-46.53L47.66-46.53Q47.27-46.29 46.83-46.24 46.39-46.19 45.92-46.12 45.46-46.04 45.07-45.9 44.68-45.75 44.48-45.36L44.48-45.36Q43.99-45.85 43.41-46.19 42.82-46.53 42.24-46.92L42.24-46.92Q41.75-46.78 41.26-46.53 40.77-46.29 40.28-46.29L40.28-46.29Q39.94-46.29 39.6-46.53L39.6-46.53Q39.21-46.24 38.7-46.07 38.18-45.9 37.62-45.75 37.06-45.61 36.6-45.36 36.13-45.12 35.94-44.63L35.94-44.63Q35.84-44.87 35.47-44.78 35.11-44.68 35.06-45.02L35.06-45.02Q33.5-44.48 31.88-44.09 30.27-43.7 28.66-43.26 27.05-42.82 25.49-42.29 23.93-41.75 22.46-40.97L22.46-40.97Q22.41-40.92 22.41-40.82L22.41-40.82Q22.41-40.33 22.56-39.89 22.71-39.45 22.8-39.06L22.8-39.06Q21.92-36.08 21.63-33.01 21.34-29.93 20.85-26.95L20.85-26.95 20.85-26.76Q20.85-26.51 21.04-26.39 21.24-26.27 21.24-25.98L21.24-25.98 21.19-25.88Q20.95-25.73 20.85-25.46 20.75-25.2 20.75-24.9L20.75-24.9Q20.75-24.71 20.85-24.32L20.85-24.32Q20.02-21.53 19.75-18.65 19.48-15.77 19.09-12.89L19.09-12.89 18.65-9.67Q18.55-9.38 18.48-9.11 18.41-8.84 18.41-8.54L18.41-8.54Q18.41-6.98 18.63-5.49 18.85-4 18.75-2.44L18.75-2.44Q19.19-1.76 19.19-1.12L19.19-1.12Q19.19-0.88 19.17-0.63 19.14-0.39 19.09-0.15L19.09-0.15Q19.73 0.49 20.58 0.76 21.44 1.03 22.12 1.61L22.12 1.61 22.12 1.81Q22.12 2.29 21.97 2.76 21.83 3.22 21.73 3.71L21.73 3.71Q21.63 4.1 21.51 4.83 21.39 5.57 21.19 5.81L21.19 5.81Q20.95 6.15 20.48 6.42 20.02 6.69 19.58 6.69L19.58 6.69Q19.43 6.69 19.17 6.54 18.9 6.4 18.75 6.3L18.75 6.3Q18.51 6.3 18.12 6.54 17.72 6.79 17.33 6.79L17.33 6.79Q17.14 6.79 16.99 6.76 16.85 6.74 16.65 6.64L16.65 6.64Q16.46 6.15 16.09 5.79 15.72 5.42 15.23 5.08L15.23 5.08Q15.28 4.39 14.99 4.05 14.7 3.71 14.4 3.17L14.4 3.17Q14.31 2.49 14.23 1.61 14.16 0.73 13.48 0.34L13.48 0.34Q13.72 0 13.72-0.59L13.72-0.59Q13.72-0.83 13.65-1.12 13.57-1.42 13.33-1.56L13.33-1.56 13.33-1.66Q13.28-1.9 13.5-2.03 13.72-2.15 13.72-2.39L13.72-2.39 13.72-2.59Q13.38-4.15 13.38-5.86L13.38-5.86Q13.38-7.47 13.48-9.06 13.57-10.64 13.48-12.26L13.48-12.26Q13.77-12.5 13.94-13.04 14.11-13.57 14.21-14.21 14.31-14.84 14.33-15.45 14.36-16.06 14.4-16.46L14.4-16.46Q14.65-19.24 15.19-21.95 15.72-24.66 15.82-27.49L15.82-27.49Q16.06-27.88 16.11-28.52 16.16-29.15 16.16-29.86 16.16-30.57 16.26-31.25 16.36-31.93 16.65-32.42L16.65-32.42Q16.65-33.79 16.89-35.18 17.14-36.57 17.14-37.99L17.14-37.99Q17.14-38.67 16.99-39.4L16.99-39.4Q16.5-39.6 16.11-39.6L16.11-39.6Q15.58-39.6 15.01-39.38 14.45-39.16 14.21-38.72L14.21-38.72Q13.13-38.67 12.11-38.38 11.08-38.09 10.06-38.09L10.06-38.09 9.57-38.09Q9.38-38.09 9.13-38.13L9.13-38.13Q8.79-37.99 8.42-37.89 8.06-37.79 8.11-37.3L8.11-37.3Q6.59-37.16 5.15-36.67 3.71-36.18 2.29-35.62 0.88-35.06-0.56-34.57-2-34.08-3.52-33.94L-3.52-33.94Q-4.05-33.69-4.2-32.91L-4.2-32.91Q-5.27-33.01-6.01-33.45-6.74-33.89-7.71-34.28L-7.71-34.28Q-8.01-35.3-8.01-36.23L-8.01-36.23Q-8.01-37.45-7.52-38.57-7.03-39.7-5.96-40.23L-5.96-40.23Q-5.71-40.19-5.52-40.16-5.32-40.14-5.08-40.14L-5.08-40.14Q-4.3-40.14-3.52-40.43-2.73-40.72-1.9-40.72L-1.9-40.72Q-1.66-40.72-1.37-40.58L-1.37-40.58Q-1.03-40.77-0.51-40.89 0-41.02 0.46-41.14 0.93-41.26 1.32-41.5 1.71-41.75 1.81-42.19L1.81-42.19Q2.05-41.99 2.34-41.94 2.64-41.89 2.93-41.89L2.93-41.89Q3.56-41.89 4.25-42.14 4.93-42.38 5.32-42.92L5.32-42.92Q5.66-42.53 6.3-42.53L6.3-42.53Q6.98-42.53 7.64-42.9 8.3-43.26 8.94-43.26L8.94-43.26Q9.42-43.26 9.67-42.92L9.67-42.92Q10.21-43.36 10.94-43.6 11.67-43.85 12.43-44.04 13.18-44.24 13.84-44.48 14.5-44.73 14.89-45.17L14.89-45.17Q15.14-45.12 15.67-45.12L15.67-45.12Q16.5-45.12 17.26-45.34 18.02-45.56 18.8-45.75L18.8-45.75 19.82-45.85Q20.21-45.9 20.53-46.09 20.85-46.29 21.19-46.44 21.53-46.58 21.9-46.68 22.27-46.78 22.8-46.73L22.8-46.73Q23.97-47.36 25.29-47.71 26.61-48.05 27.98-48.32 29.35-48.58 30.66-48.95 31.98-49.32 33.15-50.05L33.15-50.05 33.3-50.05Q34.28-50.05 35.23-50.39 36.18-50.73 37.01-51.32L37.01-51.32Q37.16-51.27 37.3-51.27L37.3-51.27 37.65-51.27Q39.01-51.27 40.31-51.66 41.6-52.05 43.02-52.05L43.02-52.05Q43.85-52.05 44.34-51.83 44.82-51.61 45.21-51.29 45.61-50.98 46.04-50.68 46.48-50.39 47.17-50.24L47.17-50.24Q47.61-49.41 47.61-48.46 47.61-47.51 47.66-46.53ZM69.09-3.56L69.09-3.56Q68.94-2.88 68.48-2.47 68.02-2.05 67.38-1.81 66.75-1.56 66.09-1.49 65.43-1.42 64.89-1.42L64.89-1.42Q64.65-1.42 64.43-1.44 64.21-1.46 63.96-1.46L63.96-1.46Q63.72-1.46 63.72-1.22 63.72-0.98 63.47-0.88L63.47-0.88Q63.23-0.98 62.99-1.03 62.74-1.07 62.5-1.07L62.5-1.07Q62.16-1.07 61.84-1.03 61.52-0.98 61.23-0.98L61.23-0.98Q60.84-0.98 60.67-1.07 60.5-1.17 60.37-1.29 60.25-1.42 60.13-1.56 60.01-1.71 59.76-1.81L59.76-1.81Q59.42-1.95 59.2-1.86 58.98-1.76 58.54-2.15L58.54-2.15Q57.96-2.64 57.54-3.34 57.13-4.05 56.74-4.83 56.35-5.62 55.91-6.4 55.47-7.18 54.88-7.76L54.88-7.76 54.49-7.76Q53.61-7.76 53.27-7.03L53.27-7.03Q53.02-7.18 52.78-7.4 52.54-7.62 52.24-7.76L52.24-7.76Q51.12-7.42 49.9-7.18 48.68-6.93 47.46-6.93L47.46-6.93 46.77-6.93Q46.48-6.93 46.14-7.03L46.14-7.03Q45.65-6.84 45.26-6.57 44.87-6.3 44.38-6.3L44.38-6.3Q44.09-6.3 43.7-6.49L43.7-6.49Q43.41-6.49 43.43-6.25 43.45-6.01 43.11-6.01L43.11-6.01 42.67-6.01Q41.99-6.01 41.33-5.96 40.67-5.91 39.99-5.91L39.99-5.91Q39.06-5.91 38.08-6.15L38.08-6.15Q37.84-6.01 37.55-6.01L37.55-6.01Q37.35-5.91 37.25-5.69 37.16-5.47 37.06-5.3 36.96-5.13 36.79-5 36.62-4.88 36.33-4.93L36.33-4.93Q36.23-4.35 35.84-4 35.45-3.66 35.45-2.98L35.45-2.98Q34.91-2.69 34.57-2.25 34.23-1.81 33.88-1.32 33.54-0.83 33.18-0.39 32.81 0.05 32.27 0.29L32.27 0.29Q32.03 0.59 32.13 1.22L32.13 1.22Q31.59 1.66 30.81 2 30.03 2.34 29.34 2.34L29.34 2.34Q27.93 2.34 27.39 0.83L27.39 0.83Q27.39 0.34 27.46-0.22 27.54-0.78 27.68-1.29 27.83-1.81 28.12-2.22 28.42-2.64 28.95-2.83L28.95-2.83Q28.95-3.27 28.66-3.44 28.37-3.61 28.42-4.05L28.42-4.05Q29.73-4.69 30.71-5.71 31.69-6.74 32.49-7.89 33.3-9.03 34.13-10.21 34.96-11.38 35.98-12.3L35.98-12.3 35.98-13.33Q37.45-14.89 37.89-16.85L37.89-16.85Q38.43-16.94 38.6-17.33 38.77-17.72 38.77-18.26L38.77-18.26Q39.01-18.26 39.08-18.48 39.16-18.7 39.5-18.6L39.5-18.6Q39.94-19.78 40.48-20.75 41.01-21.73 41.55-22.73 42.09-23.73 42.5-24.8 42.92-25.88 43.11-27.2L43.11-27.2Q43.8-27.25 43.87-27.86 43.94-28.47 44.04-28.96L44.04-28.96Q44.77-29.64 45.14-30.57 45.51-31.49 45.8-32.5 46.09-33.5 46.46-34.5 46.82-35.5 47.51-36.28L47.51-36.28 47.51-36.43Q47.51-36.67 47.31-36.74 47.12-36.82 47.12-37.06L47.12-37.06Q47.17-37.11 47.17-37.16L47.17-37.16Q47.75-37.4 48.04-37.96 48.34-38.53 48.92-38.77L48.92-38.77Q49.95-37.94 50.73-37.77 51.51-37.6 52.78-37.5L52.78-37.5Q53.42-36.82 53.49-35.86 53.56-34.91 53.81-33.98L53.81-33.98Q54.2-32.42 54.66-30.93 55.12-29.44 55.37-27.88L55.37-27.88Q55.52-26.95 55.91-26.12 56.3-25.29 56.44-24.41L56.44-24.41Q56.54-23.73 56.44-22.88 56.35-22.02 56.64-21.39L56.64-21.39 56.98-20.61Q57.22-20.07 57.39-19.48 57.57-18.9 57.71-18.31L57.71-18.31Q58.1-16.85 58.42-15.16 58.74-13.48 59.42-12.11L59.42-12.11Q59.67-11.62 60.18-11.43 60.69-11.23 61.33-11.16 61.96-11.08 62.57-11.11 63.18-11.13 63.62-11.13L63.62-11.13 64.11-11.13Q64.4-11.13 64.69-11.04L64.69-11.04Q64.89-10.64 64.89-10.35L64.89-10.35Q64.89-9.77 64.5-9.42 64.11-9.08 64.11-8.64L64.11-8.64Q64.11-8.4 64.3-8.11L64.3-8.11Q64.11-8.15 63.72-8.15L63.72-8.15Q62.6-8.15 61.52-7.76L61.52-7.76Q61.91-6.93 62.57-6.37 63.23-5.81 63.96-5.32L63.96-5.32Q64.45-5.71 64.99-5.71L64.99-5.71Q65.57-5.71 66.09-5.44 66.6-5.18 67.19-5.18L67.19-5.18Q67.62-5.18 67.82-5.32L67.82-5.32Q68.21-4.88 68.45-4.42 68.7-3.96 69.09-3.56ZM53.81-11.38L53.81-11.38Q53.71-12.21 53.49-12.57 53.27-12.94 53.12-13.48L53.12-13.48Q52.93-14.16 52.85-14.94 52.78-15.72 52.63-16.46L52.63-16.46Q52.29-18.12 51.88-19.78 51.46-21.44 50.83-23L50.83-23Q51.02-23.29 51.02-23.54L51.02-23.54 51.02-23.68Q50.58-24.17 50.39-24.88 50.19-25.59 50.02-26.29 49.85-27 49.58-27.61 49.31-28.22 48.73-28.61L48.73-28.61Q48.58-28.32 48.58-27.93L48.58-27.93Q48.58-27.59 48.65-27.29 48.73-27 48.73-26.66L48.73-26.66Q48.24-26.42 48.02-25.9 47.8-25.39 47.31-25.1L47.31-25.1Q46.92-23.54 46.19-22.14 45.46-20.75 44.65-19.38 43.85-18.02 43.11-16.63 42.38-15.23 41.94-13.72L41.94-13.72Q41.31-13.28 41.09-12.6 40.87-11.91 40.87-11.23L40.87-11.23Q41.31-10.99 41.87-10.96 42.43-10.94 42.97-10.94 43.5-10.94 43.99-10.84 44.48-10.74 44.87-10.35L44.87-10.35Q45.51-10.55 46.26-10.62 47.02-10.69 47.51-11.04L47.51-11.04Q48.48-10.69 49.61-10.69L49.61-10.69Q50.19-10.69 50.75-10.79 51.32-10.89 51.85-11.04L51.85-11.04Q52.29-10.94 52.54-10.72 52.78-10.5 53.27-10.55L53.27-10.55Q53.51-10.74 53.56-10.96 53.61-11.18 53.81-11.38ZM94.53-6.15L94.53-6.15Q94.53-5.32 94.11-4.71 93.7-4.1 93.79-3.22L93.79-3.22Q93.11-2.83 92.67-2.2 92.23-1.56 91.84-0.88L91.84-0.88Q88.62 1.22 84.93 2.51 81.25 3.81 77.34 3.81L77.34 3.81Q77.09 3.81 76.9 3.59 76.7 3.37 76.51 3.13 76.31 2.88 76.09 2.66 75.87 2.44 75.58 2.44L75.58 2.44Q75.24 2.44 75.04 2.59L75.04 2.59Q75.04 2.49 75.07 2.42 75.09 2.34 75.09 2.25L75.09 2.25Q75.09 1.66 74.95 1.05 74.8 0.44 74.8-0.15L74.8-0.15Q74.8-0.83 75.04-1.27L75.04-1.27 75.63-1.27Q76.12-1.27 76.58-1.34 77.05-1.42 77.58-1.42L77.58-1.42Q78.12-1.42 78.56-1.12L78.56-1.12Q81.25-1.22 83.66-2.12 86.08-3.03 88.57-3.91L88.57-3.91Q88.96-4.44 89.03-5.1 89.11-5.76 89.4-6.35L89.4-6.35Q88.13-7.42 86.84-8.03 85.54-8.64 83.83-8.45L83.83-8.45Q82.81-9.08 81.66-9.18 80.51-9.28 79.34-9.47L79.34-9.47Q79.05-9.52 78.73-9.59 78.41-9.67 78.07-9.67L78.07-9.67Q77.83-9.67 77.61-9.55 77.39-9.42 77.49-9.18L77.49-9.18Q77.24-9.57 76.83-9.64 76.41-9.72 76.12-10.01L76.12-10.01Q74.56-10.11 73.38-10.57 72.21-11.04 70.8-11.62L70.8-11.62Q70.41-11.77 70.04-11.84 69.67-11.91 69.33-12.11L69.33-12.11Q68.45-12.55 67.91-13.28 67.38-14.01 67.06-14.92 66.74-15.82 66.6-16.8 66.45-17.77 66.3-18.6L66.3-18.6Q66.74-19.38 67.11-20.21 67.48-21.04 67.72-21.97L67.72-21.97Q68.01-22.12 68.31-22.22 68.6-22.31 68.94-22.46L68.94-22.46Q68.89-22.56 68.89-22.71L68.89-22.71Q68.89-22.95 69.06-23.19 69.23-23.44 69.14-23.68L69.14-23.68Q70.21-24.66 71.21-25.71 72.21-26.76 72.94-28.03L72.94-28.03Q73.68-28.27 74.12-28.76 74.56-29.25 75-29.76 75.43-30.27 75.97-30.69 76.51-31.1 77.34-31.2L77.34-31.2Q77.53-31.54 77.88-31.76 78.22-31.98 78.56-32.18 78.9-32.37 79.19-32.62 79.49-32.86 79.63-33.3L79.63-33.3Q80.41-33.3 81.07-33.59 81.73-33.89 82.37-34.23 83-34.57 83.66-34.86 84.32-35.16 85.1-35.16L85.1-35.16Q85.3-35.16 85.49-35.13 85.69-35.11 85.93-35.06L85.93-35.06Q86.27-34.72 86.4-34.25 86.52-33.79 86.57-33.25 86.62-32.71 86.64-32.18 86.66-31.64 86.81-31.2L86.81-31.2Q86.37-30.37 85.86-29.54 85.35-28.71 84.52-28.27L84.52-28.27 84.42-28.27Q84.08-28.22 83.78-28.42 83.49-28.61 83.1-28.61L83.1-28.61Q82.86-28.61 82.71-28.47L82.71-28.47 82.47-28.22Q82.37-28.13 82.2-28.03 82.03-27.93 81.73-28.03L81.73-28.03Q81.05-27.78 81.2-27.2L81.2-27.2Q80.27-27.1 79.63-26.64 79-26.17 78.46-25.61 77.92-25.05 77.39-24.58 76.85-24.12 76.12-24.07L76.12-24.07Q75.29-22.61 74.09-21.48 72.9-20.36 72.11-18.95L72.11-18.95Q72.26-18.55 72.31-18.12 72.36-17.68 72.46-17.19L72.46-17.19Q72.9-16.6 73.51-16.16 74.12-15.72 74.7-15.28L74.7-15.28 74.85-15.28Q75.83-15.28 76.66-14.92 77.49-14.55 78.41-14.55L78.41-14.55Q78.9-14.55 79.24-14.75L79.24-14.75Q80.51-14.45 81.76-14.26 83-14.06 84.27-13.96L84.27-13.96Q84.91-13.87 85.57-13.87 86.23-13.87 86.81-13.72L86.81-13.72Q87.35-13.57 87.89-13.35 88.42-13.13 88.96-12.89L88.96-12.89Q90.08-12.4 91.08-11.82 92.08-11.23 92.87-10.42 93.65-9.62 94.09-8.57 94.53-7.52 94.53-6.15ZM124.02-12.55L124.02-12.55Q124.02-12.01 123.63-11.74 123.23-11.47 123.23-11.04L123.23-11.04Q123.23-10.84 123.43-10.55L123.43-10.55Q122.75-10.55 122.5-10.11 122.26-9.67 122.01-9.13L122.01-9.13 121.38-9.13Q121.14-9.13 120.99-9.03 120.84-8.94 120.72-8.76 120.6-8.59 120.4-8.25L120.4-8.25Q119.47-8.06 118.62-7.64 117.77-7.23 116.96-6.76 116.15-6.3 115.32-5.83 114.49-5.37 113.62-5.08L113.62-5.08Q113.18-4.35 112.35-3.91L112.35-3.91 112.2-3.91Q111.96-3.86 111.78-3.98 111.61-4.1 111.37-4.1L111.37-4.1Q111.22-4.1 111.17-4.05L111.17-4.05Q109.71-3.08 107.9-3.08L107.9-3.08Q107.41-3.08 106.97-3.15 106.54-3.22 106.05-3.22L106.05-3.22Q105.9-3.22 105.85-3.13L105.85-3.13 105.75-2.93Q105.71-2.83 105.63-2.73 105.56-2.64 105.27-2.64L105.27-2.64Q104.73-2.64 104.19-2.78 103.65-2.93 103.07-2.83L103.07-2.83Q101.95-3.47 101.31-4.05 100.68-4.64 100.14-5.81L100.14-5.81Q99.89-6.35 99.48-6.84 99.06-7.32 98.87-7.91L98.87-7.91Q98.82-8.11 98.72-8.62 98.63-9.13 98.53-9.72 98.43-10.3 98.36-10.84 98.28-11.38 98.28-11.57L98.28-11.57Q98.28-12.16 98.36-12.72 98.43-13.28 98.53-13.87L98.53-13.87Q98.82-15.72 98.94-17.6 99.06-19.48 99.75-21.24L99.75-21.24Q99.65-21.78 99.65-22.27L99.65-22.27 99.65-23.34Q99.65-24.27 99.41-24.9L99.41-24.9Q99.8-25.54 99.8-26.32L99.8-26.32Q99.8-27.2 99.06-27.34L99.06-27.34 99.06-27.49Q99.06-28.52 98.38-29.1L98.38-29.1Q98.38-30.81 99.24-31.67 100.09-32.52 101.51-33.15L101.51-33.15Q101.7-33.45 101.65-33.64L101.65-33.64Q101.99-33.54 102.29-33.45 102.58-33.35 102.87-33.35L102.87-33.35Q103.36-33.35 103.75-33.5L103.75-33.5Q103.9-32.91 104.51-32.79 105.12-32.67 105.51-32.47L105.51-32.47 105.51-31.84Q105.51-30.32 106.24-28.96L106.24-28.96Q106.05-28.56 106-28.13 105.95-27.69 105.95-27.29L105.95-27.29Q105.95-26.71 106-26.12 106.05-25.54 106.05-25L106.05-25Q106.05-24.41 105.93-23.83 105.8-23.24 105.36-22.8L105.36-22.8Q105.31-22.17 105.29-21.36 105.27-20.56 105.19-19.73 105.12-18.9 104.92-18.12 104.73-17.33 104.34-16.85L104.34-16.85Q104.29-16.11 104.26-15.36 104.24-14.6 104.24-13.92L104.24-13.92Q104.24-12.84 104.36-11.38 104.48-9.91 105.02-8.94L105.02-8.94Q105.27-8.54 105.97-8.35 106.68-8.15 107.12-8.15L107.12-8.15Q107.66-8.15 108.22-8.33 108.78-8.5 109.03-8.94L109.03-8.94Q109.32-8.89 109.42-8.64 109.51-8.4 109.76-8.25L109.76-8.25Q112.54-9.42 115.32-10.5 118.11-11.57 120.79-12.99L120.79-12.99Q121.18-12.79 121.62-12.79L121.62-12.79Q122.11-12.79 122.6-12.89 123.09-12.99 123.58-12.99L123.58-12.99 123.92-12.99Q124.02-12.7 124.02-12.55ZM154.58-31.05L154.58-31.05 154.58-30.86Q154.24-30.76 154.24-30.37L154.24-30.37Q153.7-30.13 153.12-30 152.53-29.88 151.99-29.64L151.99-29.64Q151.45-29.69 150.89-29.71 150.33-29.74 149.79-29.74L149.79-29.74Q148.33-29.74 146.87-29.64 145.4-29.54 143.94-29.64L143.94-29.64Q143.25-29.25 142.45-29.03 141.64-28.81 140.91-28.81L140.91-28.81Q140.32-28.81 139.88-28.96L139.88-28.96Q138.71-28.37 137.32-27.98 135.93-27.59 134.51-27.22 133.1-26.86 131.8-26.39 130.51-25.93 129.53-25.1L129.53-25.1Q129.43-24.41 129.38-23.75 129.34-23.1 129.34-22.46L129.34-22.46Q129.34-21.78 129.41-21.19 129.48-20.61 129.73-20.02L129.73-20.02Q129.97-19.92 130.29-19.87 130.61-19.82 130.85-19.82L130.85-19.82Q131.09-19.82 131.34-19.9 131.58-19.97 131.68-20.21L131.68-20.21Q132.41-20.31 133.14-20.29 133.88-20.26 134.61-20.26L134.61-20.26Q135.34-20.26 136.05-20.31 136.76-20.36 137.44-20.56L137.44-20.56Q138.22-20.75 138.98-20.8 139.74-20.85 140.47-20.9 141.2-20.95 141.98-21.07 142.76-21.19 143.59-21.58L143.59-21.58Q144.23-21.34 144.89-21.34 145.55-21.34 146.18-21.24L146.18-21.24Q146.52-21 146.74-20.7 146.96-20.41 146.96-20.02L146.96-20.02Q146.96-19.34 146.47-18.65 145.99-17.97 145.69-17.38L145.69-17.38 145.16-17.38Q143.98-17.38 142.89-17.07 141.79-16.75 140.69-16.33 139.59-15.92 138.49-15.6 137.39-15.28 136.22-15.28L136.22-15.28Q136.03-15.28 136-15.06 135.98-14.84 135.88-14.75L135.88-14.75Q135.63-14.79 135.15-14.79L135.15-14.79Q134.02-14.79 133-14.55 131.97-14.31 130.9-14.31L130.9-14.31Q130.61-14.31 130.31-14.33 130.02-14.36 129.73-14.4L129.73-14.4Q129.48-14.01 129.09-13.89 128.7-13.77 128.36-13.48L128.36-13.48Q128.21-13.04 128.19-12.4 128.16-11.77 128.14-11.11 128.12-10.45 128.02-9.86 127.92-9.28 127.63-8.94L127.63-8.94Q127.68-8.69 128.02-8.76 128.36-8.84 128.36-8.45L128.36-8.45Q128.36-8.01 128.26-7.52 128.16-7.03 128.16-6.54L128.16-6.54Q128.16-5.62 128.38-4.52 128.6-3.42 129.07-2.49 129.53-1.56 130.31-0.95 131.09-0.34 132.27-0.34L132.27-0.34Q133.05-0.34 133.73-0.63 134.41-0.93 134.85-1.61L134.85-1.61 135.1-1.66Q135.29-1.66 135.46-1.61 135.63-1.56 135.83-1.56L135.83-1.56Q136.12-1.56 136.59-1.93 137.05-2.29 137.61-2.78 138.17-3.27 138.76-3.74 139.35-4.2 139.88-4.39L139.88-4.39Q140.22-5.08 140.54-5.76 140.86-6.45 141.49-6.84L141.49-6.84 141.49-8.25Q141.98-8.79 142.54-9.23 143.11-9.67 143.4-10.35L143.4-10.35Q143.64-10.25 143.86-10.21 144.08-10.16 144.33-10.16L144.33-10.16Q144.57-10.16 144.84-10.21 145.11-10.25 145.35-10.35L145.35-10.35Q145.74-9.81 145.96-9.16 146.18-8.5 146.52-7.91L146.52-7.91Q146.08-7.03 145.5-5.81 144.91-4.59 144.23-3.37 143.54-2.15 142.79-1.05 142.03 0.05 141.3 0.63L141.3 0.63Q141.15 0.78 140.66 0.98L140.66 0.98Q140.13 1.37 139.69 1.73 139.25 2.1 138.86 2.59L138.86 2.59Q137.44 3.03 136.15 3.76 134.85 4.49 133.58 5.18L133.58 5.18Q133 5.03 132.31 5.03L132.31 5.03Q131.73 5.03 131.14 5.1 130.56 5.18 129.87 5.18L129.87 5.18Q129.68 4.93 129.31 4.86 128.95 4.79 129.04 4.35L129.04 4.35Q127.38 4.25 126.36 3.44 125.33 2.64 124.62 1.46 123.92 0.29 123.48-1.07 123.04-2.44 122.55-3.71L122.55-3.71 122.55-3.86Q122.55-4.1 122.74-4.15 122.94-4.2 122.94-4.44L122.94-4.44Q122.94-4.54 122.89-4.59L122.89-4.59Q122.74-5.13 122.65-5.52 122.55-5.91 122.55-6.45L122.55-6.45Q122.55-7.23 122.65-7.98 122.74-8.74 122.74-9.52L122.74-9.52Q122.74-10.3 122.55-10.89L122.55-10.89Q122.74-11.13 122.87-11.55 122.99-11.96 123.04-12.4 123.09-12.84 123.11-13.28 123.13-13.72 123.23-14.06L123.23-14.06Q123.04-14.6 122.89-15.01 122.74-15.43 122.74-16.02L122.74-16.02 122.74-16.36Q123.23-17.19 123.57-18.07 123.92-18.95 124.31-19.87L124.31-19.87 124.31-20.02Q124.31-21.44 124.21-22.85 124.11-24.27 124.11-25.68L124.11-25.68 124.11-26.61Q124.11-27.1 124.16-27.54L124.16-27.54Q124.55-27.73 124.75-28.08 124.94-28.42 125.33-28.61L125.33-28.61 126.94-28.61 127.24-29.1Q127.38-29.35 127.43-29.64L127.43-29.64Q127.97-29.79 128.48-30.05 128.99-30.32 129.43-30.62L129.43-30.62Q130.12-31.01 130.68-31.32 131.24-31.64 131.8-31.86 132.36-32.08 133-32.23 133.63-32.37 134.46-32.47L134.46-32.47Q134.85-32.47 134.98-32.62 135.1-32.76 135.34-32.96L135.34-32.96Q135.93-32.86 136.51-32.79 137.1-32.71 137.69-32.71L137.69-32.71Q138.86-32.71 139.88-33.15L139.88-33.15Q141.35-33.15 142.79-33.2 144.23-33.25 145.69-33.25L145.69-33.25Q146.96-33.25 148.23-33.15 149.5-33.06 150.72-32.81L150.72-32.81Q151.16-32.96 151.7-32.96L151.7-32.96Q152.28-32.96 152.9-32.84 153.51-32.71 154.09-32.81L154.09-32.81Q154.14-32.28 154.36-31.91 154.58-31.54 154.58-31.05ZM184.36-32.08L184.36-32.08Q184.26-31.49 184.09-31.08 183.92-30.66 184.02-29.98L184.02-29.98Q183.53-29.93 183.26-29.66 183-29.39 182.82-29.05 182.65-28.71 182.48-28.34 182.31-27.98 182.07-27.69L182.07-27.69Q182.46-25.93 182.51-24.12 182.56-22.31 182.75-20.56L182.75-20.56Q183-18.31 183.51-16.14 184.02-13.96 184.02-11.72L184.02-11.72Q184.02-11.04 184-10.45 183.97-9.86 183.97-9.23L183.97-9.23Q183.97-8.84 184-8.42 184.02-8.01 184.02-7.62L184.02-7.62Q184.02-6.2 183.65-4.79 183.29-3.37 183.09-1.95L183.09-1.95Q182.51-1.42 182.09-0.78 181.68-0.15 181.24 0.39 180.8 0.93 180.21 1.34 179.63 1.76 178.75 1.9L178.75 1.9Q178.6 2.39 178.19 2.64 177.77 2.88 177.48 3.32L177.48 3.32 177.38 3.32Q176.16 3.32 175.28 2.98 174.4 2.64 173.64 2.2 172.89 1.76 172.11 1.27 171.33 0.78 170.3 0.49L170.3 0.49Q168.93-0.63 167.81-1.98 166.69-3.32 165.27-4.39L165.27-4.39Q164.93-5.37 164.37-6.01 163.81-6.64 163.27-7.47L163.27-7.47Q163.02-7.81 162.9-8.11 162.78-8.4 162.59-8.79L162.59-8.79Q162.44-9.18 162.12-9.33 161.8-9.47 161.56-9.67L161.56-9.67Q161.17-11.18 160.44-12.45 159.7-13.72 158.73-14.89L158.73-14.89Q158.43-14.36 158.26-13.75 158.09-13.13 157.95-12.52 157.8-11.91 157.58-11.3 157.36-10.69 157.02-10.21L157.02-10.21 157.02-10.06Q157.02-9.81 157.21-9.77 157.41-9.72 157.41-9.47L157.41-9.47Q157.41-9.42 157.38-9.38 157.36-9.33 157.36-9.28L157.36-9.28Q157.12-9.08 156.99-8.79 156.87-8.5 156.48-8.45L156.48-8.45Q156.53-8.2 156.53-7.96L156.53-7.96 156.53-7.52Q156.53-6.1 156.21-4.69 155.9-3.27 155.9-1.81L155.9-1.81 155.9-1.17Q155.9-0.83 155.94-0.54L155.94-0.54Q156.04-0.24 156.24 0.05 156.43 0.34 156.43 0.59L156.43 0.59Q156.43 0.93 156.14 1.22L156.14 1.22Q156.48 1.46 156.92 1.76 157.36 2.05 157.73 2.42 158.09 2.78 158.34 3.2 158.58 3.61 158.58 4.1L158.58 4.1Q158.58 4.93 158.04 5.27 157.51 5.62 156.75 5.81 155.99 6.01 155.19 6.18 154.38 6.35 153.84 6.79L153.84 6.79 153.7 6.79Q153.11 6.79 152.82 6.45 152.53 6.1 151.94 6.1L151.94 6.1Q151.01 4.59 150.67 2.71 150.33 0.83 150.33-0.88L150.33-0.88Q150.33-2.98 150.7-5.08 151.06-7.18 151.57-9.23 152.09-11.28 152.7-13.31 153.31-15.33 153.84-17.38L153.84-17.38 153.89-17.53Q153.89-17.77 153.77-17.87 153.65-17.97 153.65-18.16L153.65-18.16Q153.65-18.26 153.7-18.26L153.7-18.26Q153.84-18.75 154.02-19.19 154.19-19.63 154.28-20.17L154.28-20.17Q154.58-21.53 154.7-22.97 154.82-24.41 154.85-25.83 154.87-27.25 154.94-28.69 155.02-30.13 155.26-31.54L155.26-31.54Q155.65-31.93 155.99-32.37 156.34-32.81 156.87-33.15L156.87-33.15Q157.85-33.11 158.83-32.86 159.8-32.62 160.68-32.08L160.68-32.08Q161.27-29.98 161.49-27.88 161.71-25.78 162.24-23.68L162.24-23.68 162.24-23.54Q162.24-23.29 162.51-23.32 162.78-23.34 162.93-23.14L162.93-23.14Q162.83-23 162.8-22.8 162.78-22.61 162.78-22.41L162.78-22.41 162.78-21.58Q162.88-21.19 163.02-20.75 163.17-20.31 163.66-20.21L163.66-20.21Q163.9-18.65 164.39-17.33 164.88-16.02 165.51-14.79 166.15-13.57 166.88-12.38 167.61-11.18 168.4-9.86L168.4-9.86Q169.62-8.94 170.5-7.74 171.37-6.54 172.28-5.44 173.18-4.35 174.33-3.52 175.48-2.69 177.33-2.49L177.33-2.49Q177.58-2.69 177.67-3.03L177.67-3.03 177.92-3.71Q178.06-4.05 178.23-4.32 178.41-4.59 178.75-4.74L178.75-4.74Q178.84-6.1 178.97-7.52 179.09-8.94 179.58-10.21L179.58-10.21Q179.33-10.64 179.33-11.28L179.33-11.28Q179.33-11.77 179.41-12.21 179.48-12.65 179.48-13.09L179.48-13.09Q179.48-14.01 179.09-14.6L179.09-14.6Q179.09-14.94 179.14-15.31 179.19-15.67 179.43-16.02L179.43-16.02Q179.04-16.99 178.82-18.07 178.6-19.14 178.6-20.26L178.6-20.26Q178.6-20.9 178.75-21.58L178.75-21.58Q178.45-22.31 178.36-23.29L178.36-23.29 178.16-25.29Q178.06-26.32 177.87-27.2 177.67-28.08 177.14-28.61L177.14-28.61Q177.43-29.05 177.43-29.64L177.43-29.64Q177.43-30.62 177.14-31.49 176.84-32.37 176.84-33.35L176.84-33.35Q176.84-34.03 177.14-34.72L177.14-34.72Q178.21-34.67 179.26-34.5 180.31-34.33 181.34-34.33L181.34-34.33Q181.63-33.94 182.02-33.69 182.41-33.45 182.85-33.23 183.29-33.01 183.7-32.76 184.12-32.52 184.36-32.08ZM231.14-31.4L231.28-31.4Q231.09-30.76 230.65-30.22L230.65-30.22 229.82-29.2Q229.43-28.71 229.16-28.15 228.89-27.59 228.99-26.86L228.99-26.86Q228.89-26.86 228.74-26.88 228.6-26.9 228.5-26.9L228.5-26.9Q227.72-26.9 227.3-26.54 226.89-26.17 226.21-25.93L226.21-25.93Q226.11-26.22 225.96-26.49 225.82-26.76 225.52-26.86L225.52-26.86Q224.35-26.61 223.18-26.49 222.01-26.37 220.83-26.17L220.83-26.17Q220.3-26.07 219.76-25.9 219.22-25.73 218.64-25.59L218.64-25.59Q218.34-25.49 218-25.51 217.66-25.54 217.32-25.49L217.32-25.49Q216.15-25.44 214.78-25.32 213.41-25.2 212.34-24.56L212.34-24.56Q211.85-24.66 211.31-24.71 210.78-24.76 210.24-24.76L210.24-24.76Q209.07-24.76 207.68-24.54 206.28-24.32 205.21-23.68L205.21-23.68Q204.97-23.78 204.7-23.83 204.43-23.88 204.09-23.88L204.09-23.88Q203.99-23.88 203.94-23.85 203.89-23.83 203.79-23.83L203.79-23.83Q203.74-23.39 203.92-22.97 204.09-22.56 204.53-22.31L204.53-22.31Q204.33-21.78 204.33-21.14L204.33-21.14Q204.33-20.31 204.45-19.48 204.57-18.65 204.57-17.82L204.57-17.82Q204.57-16.89 204.33-16.36L204.33-16.36Q204.82-14.89 204.82-13.23L204.82-13.23Q204.82-12.65 204.75-12.08 204.67-11.52 204.67-10.89L204.67-10.89Q204.67-10.35 205.06-10.03 205.45-9.72 205.45-9.18L205.45-9.18Q205.45-8.98 205.36-8.79L205.36-8.79Q206.04-8.94 206.67-9.2 207.31-9.47 207.99-9.47L207.99-9.47Q208.38-9.47 208.75-9.33 209.12-9.18 209.41-8.94L209.41-8.94Q209.36-8.69 209.34-8.4 209.31-8.11 209.31-7.81L209.31-7.81Q209.31-7.28 209.34-6.81 209.36-6.35 209.41-5.81L209.41-5.81Q209.02-5.13 208.51-4.59 207.99-4.05 207.8-3.22L207.8-3.22Q207.07-3.22 206.5-2.91 205.94-2.59 205.45-2.22 204.97-1.86 204.48-1.54 203.99-1.22 203.4-1.22L203.4-1.22Q202.67-1.22 202.38-1.44 202.08-1.66 201.94-1.9 201.79-2.15 201.67-2.34 201.55-2.54 201.16-2.49L201.16-2.49Q201.06-3.13 200.77-3.69 200.47-4.25 200.16-4.79 199.84-5.32 199.52-5.88 199.2-6.45 199.06-7.03L199.06-7.03Q198.76-8.3 198.81-9.67 198.86-11.04 198.37-12.3L198.37-12.3Q198.47-12.99 198.52-13.7 198.57-14.4 198.57-15.09L198.57-15.09Q198.57-16.46 198.5-17.8 198.42-19.14 198.37-20.56L198.37-20.56Q198.03-21 197.96-21.56 197.89-22.12 197.84-22.66L197.84-22.66Q197.69-22.8 197.52-22.95 197.35-23.1 197.3-23.34L197.3-23.34Q196.91-23.44 196.71-23.44L196.71-23.44Q196.03-23.44 195.57-23.12 195.1-22.8 194.71-22.8L194.71-22.8Q194.32-22.8 193.98-22.9 193.64-23 193.3-23L193.3-23Q193-23 192.98-22.88 192.95-22.75 192.76-22.66L192.76-22.66Q192.61-22.56 192.07-22.46 191.54-22.36 190.88-22.29 190.22-22.22 189.61-22.17 189-22.12 188.8-22.12L188.8-22.12Q188.02-22.12 187.61-22.44 187.19-22.75 186.61-23.14L186.61-23.14Q186.7-23.44 186.7-23.54L186.7-23.54Q186.7-24.02 186.41-24.34 186.12-24.66 186.12-24.9L186.12-24.9Q186.12-25.44 186.53-25.73 186.95-26.03 187-26.66L187-26.66Q188.12-27.15 189.29-27.39 190.46-27.64 191.68-27.78 192.9-27.93 194.1-28.13 195.3-28.32 196.47-28.76L196.47-28.76Q196.81-28.71 197.13-28.69 197.45-28.66 197.79-28.66L197.79-28.66Q199.25-28.66 200.69-28.98 202.13-29.3 203.65-29.3L203.65-29.3Q204.04-29.3 204.43-29.25 204.82-29.2 205.21-29.1L205.21-29.1Q207.16-29.39 209.09-29.74 211.02-30.08 213.07-30.32L213.07-30.32Q214.05-30.42 215-30.49 215.95-30.57 216.93-30.71L216.93-30.71Q217.27-30.76 217.44-30.88 217.61-31.01 217.61-31.4L217.61-31.4Q218.05-31.2 218.59-31.2L218.59-31.2Q219.42-31.2 220.2-31.49 220.98-31.79 221.81-31.79L221.81-31.79Q222.01-31.79 222.15-31.76 222.3-31.74 222.45-31.74L222.45-31.74Q222.79-31.74 222.81-32.06 222.84-32.37 223.28-32.47L223.28-32.47Q223.62-32.57 224.25-32.62 224.89-32.67 225.6-32.74 226.3-32.81 226.91-32.93 227.52-33.06 227.82-33.3L227.82-33.3 228.16-33.84Q229.04-33.79 229.45-33.08 229.87-32.37 229.92-31.54L229.92-31.54Q230.11-31.35 230.48-31.37 230.84-31.4 231.14-31.4L231.14-31.4Z" opacity="1" transform="matrix(1,0,0,1,0,0)" fill="#000000" class="undefined-text-0" data-fill-palette-color="primary" id="text-0"></path></svg></g></svg></g><g transform="matrix(1,0,0,1,0,96.16254630836156)"><svg viewBox="0 0 316.416 48.07831688226892" height="48.07831688226892" width="316.416"><g transform="matrix(1,0,0,1,0,0)"><svg width="316.416" viewBox="1.25 -35.85 317.87 48.3" height="48.07831688226892" data-palette-color="#3490b1"><path d="M16.1 0.3L16.1 0.3Q14.3-4.55 12.48-9.28 10.65-14 8.95-18.3 7.25-22.6 5.75-26.05L5.75-26.05Q4.7-28.5 4.1-29.7 3.5-30.9 2.95-31.3 2.4-31.7 1.5-31.8L1.5-31.8Q1.35-32.4 1.3-32.98 1.25-33.55 1.25-33.95L1.25-33.95Q1.75-33.9 2.45-33.88 3.15-33.85 3.98-33.83 4.8-33.8 5.65-33.8 6.5-33.8 7.3-33.8L7.3-33.8Q8.9-33.8 10.43-33.85 11.95-33.9 13.35-33.95L13.35-33.95Q13.35-33.5 13.28-32.93 13.2-32.35 13.1-31.8L13.1-31.8Q11.45-31.7 10.65-31.28 9.85-30.85 9.98-29.73 10.1-28.6 11.1-26.3L11.1-26.3Q12.45-23.1 13.75-19.8 15.05-16.5 16.32-13.13 17.6-9.75 18.9-6.15L18.9-6.15 18.15-6.15Q19.6-9.4 20.93-12.6 22.25-15.8 23.53-19.07 24.8-22.35 26-25.7L26-25.7Q26.95-28.5 26.58-30.03 26.2-31.55 23.95-31.8L23.95-31.8Q23.8-32.35 23.75-32.95 23.7-33.55 23.7-33.95L23.7-33.95Q24.45-33.9 25.13-33.88 25.8-33.85 26.5-33.83 27.2-33.8 27.95-33.8L27.95-33.8Q29.1-33.8 30.53-33.85 31.95-33.9 33.05-33.95L33.05-33.95Q33.05-33.4 33-32.88 32.95-32.35 32.8-31.8L32.8-31.8Q31.25-31.45 30.35-29.93 29.45-28.4 28.5-25.9L28.5-25.9Q26-19.45 23.38-12.95 20.75-6.45 18.05 0.1L18.05 0.1Q17.55 0.2 17.13 0.25 16.7 0.3 16.1 0.3ZM64.1 0.15L64.1 0.15Q64.1-0.35 64.15-0.93 64.2-1.5 64.35-2L64.35-2Q66.35-2 67.08-2.93 67.8-3.85 67.8-6.35L67.8-6.35 67.8-16.25Q67.8-17.45 67.58-18.23 67.35-19 66.55-19.4 65.75-19.8 64.05-19.8L64.05-19.8Q64.05-20.35 64.15-20.8 64.25-21.25 64.5-21.65L64.5-21.65Q65.25-21.65 66.63-21.9 68-22.15 69.3-22.55 70.6-22.95 71.2-23.35L71.2-23.35Q71.65-23.2 71.98-22.75 72.3-22.3 72.3-21.35L72.3-21.35 72.3-6.35Q72.3-3.85 72.98-2.93 73.65-2 75.25-2L75.25-2Q75.4-1.5 75.45-0.85 75.5-0.2 75.5 0.15L75.5 0.15Q74.65 0.1 73.7 0.08 72.75 0.05 71.78 0.03 70.8 0 69.85 0L69.85 0Q68.9 0 67.88 0.03 66.85 0.05 65.9 0.08 64.95 0.1 64.1 0.15ZM69.65-29L69.65-29Q68.4-29 67.55-29.85 66.7-30.7 66.7-31.9L66.7-31.9Q66.7-33.25 67.6-34.1 68.5-34.95 69.65-34.95L69.65-34.95Q71-34.95 71.83-34.1 72.65-33.25 72.65-31.9L72.65-31.9Q72.65-30.75 71.78-29.88 70.9-29 69.65-29ZM107.06 0.15L107.06 0.15Q107.06-0.35 107.11-0.93 107.16-1.5 107.31-2L107.31-2Q109.31-2 110.03-2.93 110.76-3.85 110.76-6.35L110.76-6.35 110.76-28.75Q110.76-29.95 110.53-30.73 110.31-31.5 109.51-31.9 108.71-32.3 107.01-32.3L107.01-32.3Q107.01-32.85 107.11-33.3 107.21-33.75 107.46-34.15L107.46-34.15Q108.21-34.15 109.58-34.4 110.96-34.65 112.26-35.05 113.56-35.45 114.16-35.85L114.16-35.85Q114.61-35.7 114.93-35.25 115.26-34.8 115.26-33.85L115.26-33.85 115.26-6.35Q115.26-3.85 115.93-2.93 116.61-2 118.21-2L118.21-2Q118.36-1.5 118.41-0.85 118.46-0.2 118.46 0.15L118.46 0.15Q117.61 0.1 116.66 0.08 115.71 0.05 114.73 0.03 113.76 0 112.81 0L112.81 0Q111.86 0 110.83 0.03 109.81 0.05 108.86 0.08 107.91 0.1 107.06 0.15ZM149.96 0.15L149.96 0.15Q149.96-0.35 150.01-0.93 150.06-1.5 150.21-2L150.21-2Q152.21-2 152.94-2.93 153.66-3.85 153.66-6.35L153.66-6.35 153.66-28.75Q153.66-29.95 153.44-30.73 153.21-31.5 152.41-31.9 151.61-32.3 149.91-32.3L149.91-32.3Q149.91-32.85 150.01-33.3 150.11-33.75 150.36-34.15L150.36-34.15Q151.11-34.15 152.49-34.4 153.86-34.65 155.16-35.05 156.46-35.45 157.06-35.85L157.06-35.85Q157.51-35.7 157.84-35.25 158.16-34.8 158.16-33.85L158.16-33.85 158.16-6.35Q158.16-3.85 158.84-2.93 159.51-2 161.11-2L161.11-2Q161.26-1.5 161.31-0.85 161.36-0.2 161.36 0.15L161.36 0.15Q160.51 0.1 159.56 0.08 158.61 0.05 157.64 0.03 156.66 0 155.71 0L155.71 0Q154.76 0 153.74 0.03 152.71 0.05 151.76 0.08 150.81 0.1 149.96 0.15ZM208.22 0.45L208.22 0.45Q207.67 0.2 207.34-0.45 207.02-1.1 207.02-2.5L207.02-2.5Q207.02-2.95 207.07-3.58 207.12-4.2 207.27-4.7L207.27-4.7 207.37-4.7Q207.22-3.9 206.69-2.98 206.17-2.05 205.32-1.35L205.32-1.35Q204.47-0.6 203.17-0.13 201.87 0.35 200.02 0.35L200.02 0.35Q196.87 0.35 195.22-1.07 193.57-2.5 193.57-4.95L193.57-4.95Q193.57-6.9 194.49-8.28 195.42-9.65 196.89-10.58 198.37-11.5 200.09-12.05 201.82-12.6 203.47-12.9 205.12-13.2 206.37-13.4L206.37-13.4Q206.37-15.45 206.29-16.6 206.22-17.75 205.99-18.43 205.77-19.1 205.32-19.6L205.32-19.6Q204.72-20.35 203.94-20.73 203.17-21.1 202.22-21.1L202.22-21.1Q200.57-21.1 199.62-20.08 198.67-19.05 198.27-17.7 197.87-16.35 197.82-15.3L197.82-15.3Q197.27-15.3 196.44-15.38 195.62-15.45 195.22-15.65L195.22-15.65Q195.32-16.9 195.27-18.45 195.22-20 194.97-21.1L194.97-21.1Q197.02-22.15 199.29-22.75 201.57-23.35 203.47-23.35L203.47-23.35Q205.32-23.35 206.64-22.83 207.97-22.3 208.77-21.45L208.77-21.45Q210.07-20.2 210.47-18.18 210.87-16.15 210.87-12.8L210.87-12.8 210.87-7.3Q210.87-5.9 211.09-5.08 211.32-4.25 211.97-3.88 212.62-3.5 213.97-3.4L213.97-3.4Q213.97-2.9 213.92-2.27 213.87-1.65 213.67-1.1L213.67-1.1Q212.42-1.05 210.89-0.63 209.37-0.2 208.22 0.45ZM201.42-2.4L201.42-2.4Q202.52-2.4 203.67-3.13 204.82-3.85 205.59-5.4 206.37-6.95 206.37-9.45L206.37-9.45 206.37-11.35Q205.12-11.2 203.72-10.93 202.32-10.65 201.12-10.1 199.92-9.55 199.17-8.58 198.42-7.6 198.42-5.95L198.42-5.95Q198.42-4.1 199.32-3.25 200.22-2.4 201.42-2.4ZM254.67 12.45L254.67 12.45Q251.62 12.45 249.7 11.68 247.77 10.9 246.87 9.4 245.97 7.9 245.97 5.7L245.97 5.7Q245.97 3.8 247 2.4 248.02 1 249.87 0.2L249.87 0.2 252.37 0.4Q251.17 1.3 250.72 2.3 250.27 3.3 250.27 4.65L250.27 4.65Q250.27 7.2 251.55 8.5 252.82 9.8 255.87 9.8L255.87 9.8Q259.17 9.8 261.05 8.15 262.92 6.5 262.92 4.35L262.92 4.35Q262.92 3.05 262.3 2.3 261.67 1.55 259.9 1.2 258.12 0.85 254.67 0.85L254.67 0.85Q252.42 0.85 251 0.63 249.57 0.4 248.75-0.13 247.92-0.65 247.6-1.45 247.27-2.25 247.27-3.4L247.27-3.4Q247.27-5.05 248.25-6.63 249.22-8.2 250.77-9.45L250.77-9.45 252.62-8.15Q251.62-7.3 251.2-6.55 250.77-5.8 250.77-5.25L250.77-5.25Q250.77-4.35 251.25-3.9 251.72-3.45 253.27-3.3 254.82-3.15 258.02-3.15L258.02-3.15Q261.37-3.15 263.35-2.6 265.32-2.05 266.2-0.85 267.07 0.35 267.07 2.4L267.07 2.4Q267.07 4.1 266.15 5.88 265.22 7.65 263.57 9.13 261.92 10.6 259.65 11.53 257.37 12.45 254.67 12.45ZM255.87-6.95L255.87-6.95Q253.52-6.95 251.42-7.85 249.32-8.75 248.05-10.55 246.77-12.35 246.77-15.05L246.77-15.05Q246.77-17.35 247.77-19.23 248.77-21.1 250.8-22.23 252.82-23.35 255.77-23.35L255.77-23.35Q258.27-23.35 260-22.53 261.72-21.7 262.82-20.43 263.92-19.15 264.42-17.78 264.92-16.4 264.92-15.35L264.92-15.35Q264.92-13.05 263.9-11.13 262.87-9.2 260.85-8.08 258.82-6.95 255.87-6.95ZM256.47-9.25L256.47-9.25Q258.12-9.25 259.17-10.63 260.22-12 260.22-14.6L260.22-14.6Q260.22-17.25 258.92-19.18 257.62-21.1 255.27-21.1L255.27-21.1Q253.27-21.1 252.32-19.43 251.37-17.75 251.37-15.7L251.37-15.7Q251.37-12.6 252.72-10.93 254.07-9.25 256.47-9.25ZM267.47-19.8L267.47-19.8Q266.67-20 265.55-20.2 264.42-20.4 263.35-20.55 262.27-20.7 261.52-20.75L261.52-20.75 258.02-22.9 267.12-22.9Q267.32-22.25 267.4-21.43 267.47-20.6 267.47-19.8ZM310.02 0.45L310.02 0.45Q306.47 0.45 304.12-1.15 301.77-2.75 300.6-5.48 299.42-8.2 299.42-11.45L299.42-11.45Q299.42-14.65 300.67-17.35 301.92-20.05 304.25-21.7 306.57-23.35 309.77-23.35L309.77-23.35Q313.02-23.35 315-21.95 316.97-20.55 317.95-18.2 318.92-15.85 319.12-13L319.12-13Q318.92-12 318.37-11.3L318.37-11.3Q317.52-11.3 315.82-11.3 314.12-11.3 311.97-11.28 309.82-11.25 307.57-11.18 305.32-11.1 303.32-11L303.32-11 303.32-13.55 313.92-13.55Q313.92-16.85 312.72-18.9 311.52-20.95 309.32-20.95L309.32-20.95Q308.12-20.95 306.97-20.23 305.82-19.5 305.07-17.68 304.32-15.85 304.32-12.5L304.32-12.5Q304.32-10.05 304.95-7.73 305.57-5.4 307.15-3.88 308.72-2.35 311.62-2.35L311.62-2.35Q313.27-2.35 314.87-3.1 316.47-3.85 317.72-5.25L317.72-5.25Q318.12-5.05 318.5-4.58 318.87-4.1 318.92-3.7L318.92-3.7Q317.22-1.45 315-0.5 312.77 0.45 310.02 0.45Z" opacity="1" transform="matrix(1,0,0,1,0,0)" fill="#3490b1" class="undefined-text-1" data-fill-palette-color="secondary" id="text-1"></path></svg></g></svg></g></svg></g></svg></g></svg></g></svg></g></svg></g><g mask="url(#fbe674ee-7ca7-41a7-a8db-740f515ad406)"><g transform="matrix(2.7244444444444444, 0, 0, 2.7244444444444444, 116.5951995113175, 1)"><svg xmlns="http://www.w3.org/2000/svg" xmlns:xlink="http://www.w3.org/1999/xlink" version="1.1" x="0" y="0" viewBox="24.761855407245655 5 59.58264309935908 90" enable-background="new 0 0 100 100" xml:space="preserve" width="59.58264309935908" height="90" class="icon-none" data-fill-palette-color="accent" id="none"><g fill="#61777f" data-fill-palette-color="accent"><path d="M73.76 35.603C86.875 48 91.5 66.25 65.633 82.379c3.64-4.928 5.654-9.794 6.096-14.669 0.951-10.516-5.606-19.072-12.835-26.752C48.298 29.7 47.51 18.84 56.413 6.782 54.578 22.641 64.6 26.944 73.76 35.603zM45.288 93.716c6.184-13.053 7.276-20.302-8.197-34.939-4.204-3.977-7.451-8.029-9.71-12.086-2.881 6.435-5.164 20.081 3.244 27.935C36.312 79.938 44.125 83.125 45.288 93.716zM56.709 43.014C48.183 33.954 41.999 21.253 54 5 21.497 17.692 19.625 38.125 39.151 56.597 55.603 72.158 54.75 80.75 48 95 79.875 71.5 68.709 55.764 56.709 43.014z" fill="#61777f" data-fill-palette-color="accent"></path></g></svg></g></g></svg></g><defs><mask id="fbe674ee-7ca7-41a7-a8db-740f515ad406"><rect width="640" height="400" fill="white"></rect><rect width="348.05760000000004" height="180.97269728868395" fill="black" x="145.97119999999998" y="109.51365135565803" id="transform-me" transform="matrix(1,0,0,1,-122.24000000000001,-76.4)"></rect></mask></defs></svg><rect width="395.52" height="247.2" fill="none" stroke="none" visibility="hidden"></rect></g></svg></g></svg>